<svg xmlns="http://www.w3.org/2000/svg" viewBox="0 0 98.933 54.289"><defs><style>.a{fill:#d72027;}.b{font-size:17px;font-family:Helvetica;}</style></defs><g transform="translate(-27.282 -20.211)"><g transform="translate(-41 1)"><path class="a" d="M60.978,88.482v-2.2c0-1.73-1.445-2.686-2.34-3.256-1.363-.855-2.768-1.709-4.111-2.544l-.956-.59c-2.869-1.77-6.8-4.172-10.6-6.492-3.907-2.381-7.937-4.864-10.867-6.675a1.465,1.465,0,0,0-1.14-.122c-1.18.488-1.221,1.832-1.262,2.707v48.413a7.164,7.164,0,0,0,.163,1.526,1.836,1.836,0,0,0,1.018,1.465,1.257,1.257,0,0,0,.509.1,2.25,2.25,0,0,0,1.262-.448L56.135,105.23l-.855-1.669L33.363,116.28c-.122.061-.244.122-.387.2V71.1c.163.081.326.163.468.244,3.053,1.669,6.878,3.785,10.928,6.044C49.155,80.056,54.08,82.8,57.8,84.8a1.939,1.939,0,0,1,1.14,1.974v1.709h2.035Z" transform="translate(68.222 -47.318)"/><g transform="translate(107.243 40.166)"><path d="M166.031,184.8h2.055v9.707a3.455,3.455,0,0,1-.712,2.177,5.907,5.907,0,0,1-2.34,1.648l-.834-1.648a9.271,9.271,0,0,0,.875-.509,3.326,3.326,0,0,0,.549-.488,1.259,1.259,0,0,0,.285-.57,2.6,2.6,0,0,0,.081-.733V184.8Z" transform="translate(-146.149 -181.686)"/><path d="M75.5,179.245V170.8h2.055v6.878l3.582-4.029H83.62l-4.151,4.172,4.314,5.434H81.341L77.7,178.309h-.142v4.945H75.5Z" transform="translate(-75.5 -170.535)"/><path d="M121.82,184.8h2.055v5.372a2.531,2.531,0,0,0,.183.977,2.768,2.768,0,0,0,.488.773,2.144,2.144,0,0,0,.753.509,2.274,2.274,0,0,0,.9.183,2.2,2.2,0,0,0,.9-.183,2.346,2.346,0,0,0,.753-.509,2.178,2.178,0,0,0,.488-.773,2.459,2.459,0,0,0,.183-.977V184.8h2.076v5.556a4.3,4.3,0,0,1-.366,1.811,4.086,4.086,0,0,1-2.381,2.177,4.6,4.6,0,0,1-3.3,0,4.845,4.845,0,0,1-1.4-.834,4.084,4.084,0,0,1-.977-1.343,4.3,4.3,0,0,1-.366-1.811V184.8Z" transform="translate(-112.378 -181.686)"/><path d="M191.2,172.614h1.18V170.07l2.055-.57v3.114h1.648v1.954h-1.648v3.785a2.616,2.616,0,0,0,.2,1.18,1.622,1.622,0,0,0,.651.692l1.119.631-.916,1.628a12.231,12.231,0,0,1-1.384-.733,4.818,4.818,0,0,1-.977-.773,2.55,2.55,0,0,1-.57-.956,4.059,4.059,0,0,1-.183-1.282v-4.172H191.2Z" transform="translate(-167.655 -169.5)"/><path d="M227.476,187.75a3.1,3.1,0,0,0-1.1-1.669,2.779,2.779,0,0,0-1.75-.57,2.7,2.7,0,0,0-1.73.59,2.954,2.954,0,0,0-1,1.648Zm1.893,3.7a6.643,6.643,0,0,1-2.015,1.709,5.133,5.133,0,0,1-2.442.631,5.559,5.559,0,0,1-2.239-.427,4.953,4.953,0,0,1-1.669-1.14,5.19,5.19,0,0,1-1.038-1.608,4.948,4.948,0,0,1-.366-1.872,5.026,5.026,0,0,1,.366-1.872,4.971,4.971,0,0,1,2.707-2.747,5.629,5.629,0,0,1,2.239-.427,5.106,5.106,0,0,1,3.236,1.3,5.262,5.262,0,0,1,1.241,1.669,5.527,5.527,0,0,1,.488,2.422v.387H221.92a2.2,2.2,0,0,0,.305,1.018,3.162,3.162,0,0,0,.672.794,2.917,2.917,0,0,0,.916.529,3.129,3.129,0,0,0,1.058.183,3.172,3.172,0,0,0,1.547-.387,4.206,4.206,0,0,0,1.241-1.1Z" transform="translate(-190.275 -180.81)"/><path d="M276.065,190.521a4.394,4.394,0,0,0,1.384,1,3.771,3.771,0,0,0,1.628.407,3.256,3.256,0,0,0,.794-.1,2.127,2.127,0,0,0,.611-.285,1.155,1.155,0,0,0,.366-.407.844.844,0,0,0,.122-.407.919.919,0,0,0-.346-.753,1.886,1.886,0,0,0-.916-.366l-1.18-.224a9.811,9.811,0,0,1-1.669-.427,3.085,3.085,0,0,1-1.058-.61,1.814,1.814,0,0,1-.549-.773,2.737,2.737,0,0,1-.163-.936,2.993,2.993,0,0,1,.244-1.18,2.7,2.7,0,0,1,.733-1,3.547,3.547,0,0,1,1.18-.692,4.837,4.837,0,0,1,1.608-.265,5.4,5.4,0,0,1,1.913.326,7.219,7.219,0,0,1,1.893,1.018l-1.18,1.445a4.476,4.476,0,0,0-1.4-.855,3.862,3.862,0,0,0-1.18-.224,2.287,2.287,0,0,0-.651.081,1.789,1.789,0,0,0-.57.244,1.418,1.418,0,0,0-.407.366.874.874,0,0,0-.142.509.777.777,0,0,0,.326.672,2.393,2.393,0,0,0,.916.346l2.076.407a3.641,3.641,0,0,1,1.913.855,2.3,2.3,0,0,1,.631,1.689,3.028,3.028,0,0,1-.224,1.1,2.878,2.878,0,0,1-.712,1.038,3.684,3.684,0,0,1-1.262.773,5.08,5.08,0,0,1-1.872.305,5.979,5.979,0,0,1-2.279-.427A7.8,7.8,0,0,1,274.6,191.9Z" transform="translate(-234.082 -180.651)"/><path d="M322.118,188.727a3.115,3.115,0,0,0,.244,1.221,2.744,2.744,0,0,0,.651.977,3.22,3.22,0,0,0,.977.672,2.946,2.946,0,0,0,1.2.244,2.824,2.824,0,0,0,1.16-.244,2.9,2.9,0,0,0,.957-.672,3.158,3.158,0,0,0,.651-.977,3.175,3.175,0,0,0,0-2.442,2.743,2.743,0,0,0-.651-.977,3.13,3.13,0,0,0-.957-.672,2.824,2.824,0,0,0-1.16-.244,3.016,3.016,0,0,0-1.2.244,3.22,3.22,0,0,0-.977.672,3.159,3.159,0,0,0-.651.977,3.115,3.115,0,0,0-.244,1.221m5.983,3.643h-.041a3.585,3.585,0,0,1-1.323,1.038,4.162,4.162,0,0,1-1.832.387,4.691,4.691,0,0,1-2.116-.448,5.326,5.326,0,0,1-1.567-1.16,5.014,5.014,0,0,1-.977-1.608,5.3,5.3,0,0,1-.346-1.832,4.777,4.777,0,0,1,.366-1.791,5.466,5.466,0,0,1,1.018-1.628,4.843,4.843,0,0,1,3.7-1.628,4.161,4.161,0,0,1,1.872.407,2.93,2.93,0,0,1,1.18,1.018h.041v-1.18h2.055v9.585h-2.055v-1.16Z" transform="translate(-270.164 -180.81)"/></g><text class="b" transform="translate(68.282 50.323)"><tspan x="0" y="0">my</tspan></text></g></g></svg>